<svg width="238" height="180" viewBox="0 0 238 180" fill="none" xmlns="http://www.w3.org/2000/svg">
<path d="M115.92 177.69L5.61002 112.51C2.09002 110.51 -0.919979 107.3 2.50002 105.18L113.22 41.39C114.87 40.39 117.4 39.69 119.09 40.67L234.87 107.86C238.39 109.86 239.02 115.58 235.52 117.64L130.46 177.64C128.25 178.911 125.746 179.584 123.197 179.593C120.647 179.602 118.139 178.946 115.92 177.69Z" fill="#5B36A0"/>
<path d="M115.92 174.68L5.61002 109.5C2.09002 107.5 -0.919979 104.29 2.50002 102.17L113.22 38.38C114.87 37.38 117.4 36.68 119.09 37.66L234.87 104.85C238.39 106.85 239.02 112.57 235.52 114.63L130.46 174.63C128.25 175.901 125.746 176.574 123.197 176.583C120.647 176.592 118.139 175.936 115.92 174.68Z" fill="#6862E6"/>
<path opacity="0.25" d="M125 88.69L103.25 101.1C103.25 101.1 136.78 121.56 143.64 124.44L156.18 106.44" fill="url(#paint0_linear_3_226)"/>
<path opacity="0.25" d="M117.5 148.26L95.73 135.87L74 148.29C74 148.29 85.34 155.21 96.18 161.56C103 156.69 109.9 151.77 117.5 148.26Z" fill="url(#paint1_linear_3_226)"/>
<path opacity="0.46" d="M70.59 71.73L56.78 79.61C56.78 79.61 57.95 86.83 64.78 89.72L82.89 78.14" fill="url(#paint2_linear_3_226)"/>
<path d="M77.35 79.61C81.9506 79.61 85.68 76.9864 85.68 73.75C85.68 70.5136 81.9506 67.89 77.35 67.89C72.7495 67.89 69.02 70.5136 69.02 73.75C69.02 76.9864 72.7495 79.61 77.35 79.61Z" fill="#68E1FD"/>
<path d="M77.34 72.84C80.7863 72.84 83.58 71.6983 83.58 70.29C83.58 68.8817 80.7863 67.74 77.34 67.74C73.8938 67.74 71.1 68.8817 71.1 70.29C71.1 71.6983 73.8938 72.84 77.34 72.84Z" fill="#974C26"/>
<path d="M77.12 66C77.12 64.85 77.12 63.7 76.99 62.55L76.9 61.65L76.84 61.07C76.8275 60.8678 76.7974 60.667 76.75 60.47L76.63 59.77C75.9487 55.8618 74.4307 52.147 72.18 48.88C71.3325 50.8956 70.907 53.0636 70.93 55.25C70.93 55.9 70.99 56.54 71.04 57.15V57.52C71.04 57.83 71.15 58.17 71.21 58.45C71.4669 59.6208 71.801 60.7733 72.21 61.9C72.5782 62.9348 73.0297 63.9381 73.56 64.9C74.13 65.99 74.74 67.05 75.41 68.09C75.92 68.9 76.41 69.62 76.9 70.31C77.0477 68.8781 77.1211 67.4395 77.12 66ZM73.84 53.09C73.8699 52.9415 73.8699 52.7885 73.84 52.64C74 52.8 74.16 52.97 74.31 53.14C74.1548 53.11 73.9953 53.11 73.84 53.14V53.09Z" fill="#999A1C"/>
<path d="M79.26 66.92C79.8982 65.953 80.4824 64.9515 81.01 63.92C81.16 63.65 81.29 63.39 81.43 63.12L81.69 62.59L81.94 62.04C82.03 61.82 82.13 61.6 82.22 61.39C83.76 57.733 84.4901 53.7859 84.36 49.82C82.5521 51.0557 81.0199 52.6526 79.86 54.51C79.52 55.05 79.21 55.6 78.92 56.16L78.79 56.4V56.5L78.43 57.37C78.017 58.492 77.6828 59.6415 77.43 60.81C77.179 61.8854 77.0119 62.9787 76.93 64.08C76.82 65.3 76.76 66.52 76.76 67.75C76.76 68.75 76.76 69.58 76.82 70.42C77.62 69.3 78.48 68.13 79.26 66.92ZM83.5 54.26C83.6032 54.1454 83.6785 54.0085 83.72 53.86C83.72 54.09 83.81 54.3 83.84 54.51C83.7423 54.4072 83.6272 54.3226 83.5 54.26Z" fill="#999A1C"/>
<path d="M79.21 69.79C79.86 69.46 80.5 69.12 81.14 68.74L81.63 68.45L81.94 68.25L82.25 68.03L82.61 67.77C84.6198 66.2928 86.2877 64.3998 87.5 62.22C86.1273 62.3106 84.7871 62.678 83.56 63.3C83.21 63.48 82.87 63.68 82.56 63.89L82.41 63.98L81.93 64.34C81.3383 64.8067 80.7802 65.3146 80.26 65.86C79.7821 66.3609 79.3409 66.8956 78.94 67.46C78.48 68.11 78.06 68.75 77.65 69.39C77.24 70.03 77.07 70.39 76.82 70.86C77.57 70.55 78.4 70.19 79.21 69.79ZM85.59 64.32C85.6814 64.2894 85.7662 64.2419 85.84 64.18C85.84 64.32 85.74 64.45 85.68 64.58C85.6698 64.4908 85.639 64.4053 85.59 64.33V64.32Z" fill="#999A1C"/>
<path d="M77.12 66C77.12 64.85 77.12 63.7 76.99 62.55L76.9 61.65L76.84 61.07C76.8275 60.8678 76.7974 60.667 76.75 60.47L76.63 59.77C75.9487 55.8618 74.4307 52.147 72.18 48.88C71.3325 50.8956 70.907 53.0636 70.93 55.25C70.93 55.9 70.99 56.54 71.04 57.15V57.52C71.04 57.83 71.15 58.17 71.21 58.45C71.4669 59.6208 71.801 60.7733 72.21 61.9C72.5782 62.9348 73.0297 63.9381 73.56 64.9C74.13 65.99 74.74 67.05 75.41 68.09C75.92 68.9 76.41 69.62 76.9 70.31C77.0477 68.8781 77.1211 67.4395 77.12 66ZM73.84 53.09C73.8699 52.9415 73.8699 52.7885 73.84 52.64C74 52.8 74.16 52.97 74.31 53.14C74.1548 53.11 73.9953 53.11 73.84 53.14V53.09Z" fill="#999A1C"/>
<path d="M79.26 66.92C79.8982 65.953 80.4824 64.9515 81.01 63.92C81.16 63.65 81.29 63.39 81.43 63.12L81.69 62.59L81.94 62.04C82.03 61.82 82.13 61.6 82.22 61.39C83.76 57.733 84.4901 53.7859 84.36 49.82C82.5521 51.0557 81.0199 52.6526 79.86 54.51C79.52 55.05 79.21 55.6 78.92 56.16L78.79 56.4V56.5L78.43 57.37C78.017 58.492 77.6828 59.6415 77.43 60.81C77.179 61.8854 77.0119 62.9787 76.93 64.08C76.82 65.3 76.76 66.52 76.76 67.75C76.76 68.75 76.76 69.58 76.82 70.42C77.62 69.3 78.48 68.13 79.26 66.92ZM83.5 54.26C83.6032 54.1454 83.6785 54.0085 83.72 53.86C83.72 54.09 83.81 54.3 83.84 54.51C83.7423 54.4072 83.6272 54.3226 83.5 54.26Z" fill="#999A1C"/>
<path d="M79.21 69.79C79.86 69.46 80.5 69.12 81.14 68.74L81.63 68.45L81.94 68.25L82.25 68.03L82.61 67.77C84.6198 66.2928 86.2877 64.3998 87.5 62.22C86.1273 62.3106 84.7871 62.678 83.56 63.3C83.21 63.48 82.87 63.68 82.56 63.89L82.41 63.98L81.93 64.34C81.3383 64.8067 80.7802 65.3146 80.26 65.86C79.7821 66.3609 79.3409 66.8956 78.94 67.46C78.48 68.11 78.06 68.75 77.65 69.39C77.24 70.03 77.07 70.39 76.82 70.86C77.57 70.55 78.4 70.19 79.21 69.79ZM85.59 64.32C85.6814 64.2894 85.7662 64.2419 85.84 64.18C85.84 64.32 85.74 64.45 85.68 64.58C85.6698 64.4908 85.639 64.4053 85.59 64.33V64.32Z" fill="#999A1C"/>
<path d="M133.66 83.84L121.66 89.63C121.2 89.8389 120.806 90.1707 120.522 90.5888C120.238 91.0069 120.075 91.4952 120.05 92C120.031 92.5031 120.148 93.002 120.389 93.4439C120.63 93.8858 120.986 94.2542 121.42 94.51L150 111.18C150.618 111.541 151.351 111.648 152.046 111.48C152.741 111.313 153.345 110.883 153.73 110.28L160.67 99.49" fill="#A1482D"/>
<path d="M199.19 55.92L103.12 0.580005C102.462 0.201207 101.716 0.0021412 100.956 0.00277863C100.197 0.00341605 99.4512 0.203734 98.7937 0.583637C98.1362 0.963539 97.5902 1.50967 97.2104 2.16723C96.8307 2.82479 96.6305 3.57066 96.63 4.33001V61.91C96.6339 62.5374 96.8021 63.1529 97.1179 63.6951C97.4337 64.2372 97.8861 64.6872 98.43 65L200.85 124.1C201.202 124.306 201.601 124.416 202.009 124.418C202.417 124.42 202.818 124.314 203.171 124.111C203.525 123.908 203.818 123.615 204.021 123.262C204.225 122.908 204.331 122.508 204.33 122.1V64.78C204.33 62.9813 203.854 61.2146 202.951 59.6588C202.049 58.103 200.751 56.8132 199.19 55.92Z" fill="#F47B56"/>
<path d="M103.13 4.93001L196.3 58.52C197.294 59.0937 198.119 59.9187 198.693 60.9122C199.267 61.9057 199.569 63.0326 199.57 64.18V107.34C199.561 107.749 199.447 108.149 199.237 108.5C199.027 108.852 198.73 109.142 198.374 109.344C198.018 109.546 197.616 109.651 197.206 109.651C196.797 109.65 196.395 109.543 196.04 109.34L101 54.9C100.646 54.6982 100.351 54.4075 100.144 54.0567C99.9375 53.7059 99.8257 53.3072 99.82 52.9V6.83001C99.8229 6.44719 99.9257 6.07176 100.118 5.74081C100.311 5.40986 100.586 5.13485 100.917 4.94296C101.248 4.75108 101.624 4.64895 102.007 4.64668C102.39 4.6444 102.767 4.74207 103.1 4.93001H103.13Z" fill="white"/>
<path d="M142.332 86.3399C143.433 86.1279 144.129 84.9361 143.887 83.6779C143.645 82.4197 142.556 81.5716 141.455 81.7836C140.354 81.9956 139.658 83.1874 139.9 84.4456C140.143 85.7038 141.231 86.5519 142.332 86.3399Z" fill="#AB643C"/>
<path opacity="0.32" d="M128.17 63.48L171.47 89.49L192.86 77.06L154.64 54.82" fill="url(#paint3_linear_3_226)"/>
<path d="M181.68 58.31L134.87 29.77C134.62 29.6251 134.335 29.55 134.045 29.5524C133.756 29.5548 133.473 29.6347 133.225 29.7837C132.977 29.9328 132.773 30.1455 132.635 30.3998C132.497 30.6542 132.43 30.9408 132.44 31.23V47.49C132.435 47.7844 132.508 48.0748 132.65 48.3327C132.792 48.5905 132.999 48.8068 133.25 48.96L180.06 76.89C180.305 77.0303 180.583 77.1042 180.865 77.1042C181.147 77.1042 181.425 77.0303 181.67 76.89C181.913 76.7453 182.114 76.5404 182.254 76.2951C182.394 76.0498 182.469 75.7725 182.47 75.49L182.71 60.33C182.73 59.9326 182.646 59.5367 182.465 59.1822C182.285 58.8277 182.014 58.5269 181.68 58.31Z" fill="#E2AC00"/>
<path d="M170.48 66.67C172.16 69.02 175.11 69.67 177.06 68.15C179.01 66.63 179.25 63.47 177.57 61.15C175.89 58.83 172.94 58.15 170.98 59.68C169.02 61.21 168.8 64.33 170.48 66.67Z" fill="white"/>
<path d="M165.89 55.41L146.79 43.91C146.627 43.8414 146.444 43.8345 146.276 43.8905C146.108 43.9466 145.966 44.0619 145.877 44.2148C145.787 44.3678 145.757 44.548 145.791 44.7219C145.824 44.8958 145.92 45.0515 146.06 45.16L165.15 56.65C165.312 56.7165 165.492 56.7227 165.658 56.6674C165.824 56.6122 165.965 56.4991 166.054 56.3489C166.144 56.1987 166.177 56.0212 166.147 55.8489C166.116 55.6766 166.025 55.5208 165.89 55.41Z" fill="#F2F2F2"/>
<path d="M165.1 60.08L138.78 44.24C138.619 44.1832 138.444 44.1852 138.285 44.2456C138.125 44.306 137.993 44.421 137.91 44.57C137.827 44.7175 137.798 44.8895 137.829 45.0559C137.86 45.2224 137.949 45.3725 138.08 45.48L164.37 61.33C164.533 61.407 164.719 61.4199 164.892 61.3662C165.064 61.3125 165.21 61.1961 165.3 61.04C165.404 60.8802 165.441 60.6861 165.404 60.4993C165.366 60.3124 165.257 60.1476 165.1 60.04V60.08Z" fill="#F2F2F2"/>
<path d="M172.34 61.46L125.55 32.93C125.3 32.7851 125.015 32.71 124.725 32.7124C124.436 32.7148 124.153 32.7947 123.905 32.9437C123.657 33.0928 123.453 33.3055 123.315 33.5598C123.177 33.8142 123.11 34.1008 123.12 34.39V50.64C123.115 50.9344 123.188 51.2248 123.33 51.4827C123.472 51.7405 123.679 51.9567 123.93 52.11L170.74 80C170.988 80.1456 171.27 80.2218 171.557 80.2209C171.844 80.2199 172.125 80.1416 172.372 79.9944C172.618 79.8471 172.821 79.6362 172.958 79.3838C173.094 79.1315 173.161 78.8469 173.15 78.56L173.4 63.41C173.413 63.0132 173.322 62.62 173.136 62.2692C172.95 61.9184 172.676 61.6222 172.34 61.41V61.46Z" fill="#F47B56"/>
<path d="M161.14 69.83C162.82 72.17 165.77 72.83 167.72 71.3C169.67 69.77 169.91 66.62 168.23 64.3C166.55 61.98 163.6 61.3 161.64 62.83C159.68 64.36 159.46 67.48 161.14 69.83Z" fill="white"/>
<path d="M156.54 58.56L137.44 47.07C137.276 46.9818 137.084 46.9606 136.905 47.0107C136.726 47.0609 136.573 47.1785 136.479 47.3389C136.384 47.4993 136.355 47.69 136.399 47.8711C136.442 48.0521 136.553 48.2094 136.71 48.31L155.8 59.81C155.964 59.8846 156.149 59.8963 156.32 59.8428C156.492 59.7893 156.638 59.6744 156.73 59.52C156.783 59.4413 156.819 59.3529 156.838 59.26C156.856 59.167 156.856 59.0714 156.838 58.9785C156.819 58.8856 156.782 58.7973 156.729 58.7186C156.677 58.6399 156.609 58.5724 156.53 58.52L156.54 58.56Z" fill="#F2F2F2"/>
<path d="M155.75 63.26L129.44 47.39C129.277 47.313 129.091 47.3001 128.919 47.3538C128.746 47.4075 128.601 47.5239 128.51 47.68C128.406 47.8398 128.369 48.0339 128.406 48.2207C128.444 48.4076 128.553 48.5724 128.71 48.68L155 64.48C155.163 64.557 155.349 64.5699 155.522 64.5162C155.694 64.4625 155.84 64.3461 155.93 64.19C156.034 64.0302 156.071 63.8361 156.034 63.6493C155.996 63.4624 155.887 63.2976 155.73 63.19L155.75 63.26Z" fill="#F2F2F2"/>
<path d="M160.6 63.37L113.8 34.85C113.55 34.7016 113.265 34.6237 112.974 34.6245C112.683 34.6253 112.398 34.7047 112.149 34.8544C111.9 35.0041 111.696 35.2185 111.559 35.4748C111.422 35.731 111.356 36.0197 111.37 36.31V52.56C111.369 52.8534 111.444 53.1421 111.588 53.398C111.731 53.6538 111.939 53.8681 112.19 54.02L159 82C159.248 82.1447 159.531 82.2203 159.818 82.219C160.105 82.2177 160.387 82.1396 160.634 81.9926C160.881 81.8457 161.084 81.6353 161.222 81.3834C161.361 81.1315 161.429 80.8472 161.42 80.56L161.66 65.41C161.672 65.0145 161.581 64.6226 161.397 64.2722C161.214 63.9219 160.942 63.6249 160.61 63.41L160.6 63.37Z" fill="#68E1FD"/>
<path d="M160.6 63.37L113.8 34.85C113.55 34.7016 113.265 34.6237 112.974 34.6245C112.683 34.6253 112.398 34.7047 112.149 34.8544C111.9 35.0041 111.696 35.2185 111.559 35.4748C111.422 35.731 111.356 36.0197 111.37 36.31V52.56C111.369 52.8534 111.444 53.1421 111.588 53.398C111.731 53.6538 111.939 53.8681 112.19 54.02L159 82C159.248 82.1447 159.531 82.2203 159.818 82.219C160.105 82.2177 160.387 82.1396 160.634 81.9926C160.881 81.8457 161.084 81.6353 161.222 81.3834C161.361 81.1315 161.429 80.8472 161.42 80.56L161.66 65.41C161.672 65.0145 161.581 64.6226 161.397 64.2722C161.214 63.9219 160.942 63.6249 160.61 63.41L160.6 63.37Z" fill="#68E1FD"/>
<path d="M149.39 71.74C151.07 74.09 154.02 74.74 155.98 73.21C157.94 71.68 158.16 68.54 156.48 66.21C154.8 63.88 151.85 63.21 149.89 64.74C147.93 66.27 147.73 69.39 149.39 71.74Z" fill="white"/>
<path d="M144.8 60.47L125.7 49C125.537 48.9314 125.354 48.9245 125.186 48.9805C125.018 49.0366 124.876 49.1519 124.787 49.3048C124.697 49.4578 124.667 49.638 124.701 49.8119C124.734 49.9858 124.83 50.1415 124.97 50.25L144.06 61.74C144.223 61.8194 144.41 61.8336 144.583 61.7797C144.755 61.7258 144.901 61.6078 144.99 61.45C145.043 61.3713 145.079 61.2829 145.098 61.19C145.116 61.097 145.116 61.0014 145.098 60.9085C145.079 60.8156 145.042 60.7273 144.989 60.6486C144.937 60.5699 144.869 60.5024 144.79 60.45L144.8 60.47Z" fill="#F2F2F2"/>
<path d="M144 65.15L117.69 49.31C117.527 49.2414 117.344 49.2345 117.176 49.2905C117.008 49.3466 116.866 49.4619 116.777 49.6148C116.687 49.7678 116.657 49.948 116.691 50.1219C116.724 50.2958 116.82 50.4515 116.96 50.56L143.27 66.4C143.434 66.4761 143.621 66.4885 143.793 66.4348C143.966 66.3811 144.113 66.2652 144.205 66.1095C144.297 65.9539 144.328 65.7695 144.292 65.5922C144.256 65.4149 144.156 65.2573 144.01 65.15H144Z" fill="#F2F2F2"/>
<path d="M99.18 61.78C96.1559 64.3826 93.8695 67.7347 92.55 71.5C90.22 77.93 96 88.44 96 88.44L105.06 81.27" fill="#FF8F6F"/>
<path d="M98.2 146.8L95.74 145.45L96.39 141.93C96.39 141.93 100.05 142.28 100.39 143.58" fill="#003B94"/>
<path d="M99.1 146.75C99.66 146.41 100.23 146.11 100.81 145.81C102.23 145.03 104.28 144.22 105.16 142.76C105.338 142.466 105.421 142.124 105.4 141.781C105.378 141.438 105.253 141.11 105.04 140.84C103.75 139.28 100.94 141.84 99.49 140.11C99.21 139.77 99.08 134.37 99.08 134.37L93.6 135.84C93.6 135.84 92.67 146.71 92.77 147.38C92.87 148.05 94.77 148.67 94.77 148.67C95.3316 148.55 95.8669 148.33 96.35 148.02C96.93 147.61 96.35 142.51 97.14 143.22C97.93 143.93 98.19 146.73 98.19 146.73C98.4917 146.771 98.7969 146.777 99.1 146.75Z" fill="#F47B56"/>
<path d="M108.67 152.06L106.21 150.72L106.85 147.21C106.85 147.21 110.51 147.56 110.85 148.85" fill="#003B94"/>
<path d="M109.59 152C110.15 151.65 110.73 151.35 111.3 151.05C112.72 150.27 114.77 149.47 115.65 148.05C115.827 147.754 115.91 147.411 115.889 147.066C115.868 146.722 115.742 146.392 115.53 146.12C114.24 144.56 111.43 147.12 109.99 145.4C109.7 145.06 109.57 139.65 109.57 139.65L104.09 141.13C104.09 141.13 103.15 152.04 103.26 152.68C103.37 153.32 105.26 153.96 105.26 153.96C105.822 153.847 106.358 153.63 106.84 153.32C107.41 152.9 106.84 147.8 107.62 148.52C108.4 149.24 108.68 152.02 108.68 152.02C108.983 152.053 109.289 152.046 109.59 152Z" fill="#F47B56"/>
<path d="M90.81 116.73L89.2 138.31C89.2 138.31 91.77 141.86 100.4 139.89L100.48 125.34" fill="#3E2928"/>
<path d="M100.77 121C100.59 122.86 100.77 143.36 100.77 143.36C100.77 143.36 103.16 147.83 113.55 143.36L113.4 125.94" fill="#3E2928"/>
<path d="M90 123.86C90.7 124.35 90.95 121.86 91.69 122.26C94.3841 123.823 97.2454 125.077 100.22 126H100.28C100.427 125.94 100.593 125.94 100.74 126C100.814 126.028 100.881 126.071 100.938 126.126C100.995 126.181 101.04 126.247 101.07 126.32C102.905 126.862 104.772 127.29 106.66 127.6C109.09 127.99 111.09 126.2 113.58 126.07C113.58 116.54 113.58 89.42 109.58 83.63L97.58 79.63C97.52 80.63 91.75 87.31 91.89 95.46C91.8695 102.391 91.4555 109.316 90.65 116.2C90.6 116.64 90 123.34 90 123.86Z" fill="#3E2928"/>
<path d="M110.67 72.66L109.57 83.59C109.57 83.59 100.57 83.95 96.75 81.29V72" fill="#FF8F6F"/>
<path d="M122.07 65.46L121.15 66.71C121.641 65.6965 122.072 64.6546 122.44 63.59C122.7 62.87 121.53 62.59 121.28 63.3L121.14 63.68C121.25 63.29 121.36 62.9 121.46 62.51C121.498 62.3549 121.474 62.1908 121.391 62.0539C121.309 61.917 121.175 61.8185 121.02 61.78C120.865 61.7415 120.701 61.7663 120.564 61.8488C120.427 61.9313 120.328 62.0649 120.29 62.22C120.042 63.2359 119.738 64.2374 119.38 65.22C119.578 64.3499 119.722 63.4681 119.81 62.58C119.89 61.82 118.68 61.85 118.61 62.58C118.511 63.5929 118.33 64.5961 118.07 65.58C118.068 65.2448 118.038 64.9103 117.98 64.58C117.97 64.4938 117.942 64.4107 117.897 64.3365C117.852 64.2622 117.792 64.1986 117.72 64.15C117.72 64.02 117.65 63.89 117.61 63.75C117.561 63.6167 117.468 63.5042 117.346 63.4314C117.224 63.3586 117.081 63.3298 116.94 63.35C116.8 63.3712 116.673 63.4409 116.579 63.547C116.486 63.6531 116.433 63.7888 116.43 63.93L116.35 68.43C116.135 68.8992 115.852 69.334 115.51 69.72C116.09 70.1155 116.647 70.5428 117.18 71C117.66 71.4005 118.118 71.8279 118.55 72.28C118.93 71.8 119.3 71.28 119.66 70.82L119.78 70.69C120.847 69.0967 121.953 67.5367 123.1 66.01C123.57 65.44 122.52 64.85 122.07 65.46Z" fill="#FFB5A9"/>
<path d="M105 62.69C105 62.69 109.23 63.83 111 66.55C112.073 68.4345 113.019 70.3889 113.83 72.4L116.96 67.54C116.96 67.54 120.76 68.71 122.26 70.54C122.26 70.54 117.76 80.38 113.83 81.22C109.9 82.06 105.74 75.45 105.74 75.45C105.74 75.45 104.88 78.21 105.05 75.26" fill="#FF8F6F"/>
<path d="M107.68 73.21C106.455 72.2052 105.528 70.8841 105 69.39C104.5 67.66 105.13 66.14 105.72 64.53C106.368 62.9374 106.743 61.2471 106.83 59.53C106.827 57.86 106.74 56.1913 106.57 54.53C106.56 54.457 106.56 54.383 106.57 54.31C106.01 52.41 104.85 50.8 102.57 50.61C96.66 50.11 96.32 56.61 96.37 59.32C96.42 62.03 96.69 63.78 94.73 64.89C92.77 66 91.35 68.89 93.23 71.29C95.11 73.69 93.42 72.78 92.17 74.88C90.92 76.98 91.25 79.59 93.81 80.54C96.37 81.49 108.27 79.71 109.36 78.61C109.75 78.167 109.951 77.5892 109.92 77C109.652 75.5224 108.86 74.1909 107.69 73.25L107.68 73.21Z" fill="#007F68"/>
<path d="M113.49 19.21C114.489 20.6537 115.067 22.3467 115.16 24.1C115.277 24.901 115.084 25.7164 114.62 26.38C114.422 26.5969 114.157 26.742 113.868 26.7926C113.578 26.8433 113.28 26.7967 113.02 26.66C112.696 26.5287 112.403 26.3311 112.16 26.08C111.942 25.8765 111.756 25.6403 111.61 25.38L111.45 25.08C111.409 25.1593 111.359 25.2332 111.3 25.3C111.144 25.4158 110.962 25.4914 110.77 25.52C110.433 25.5897 110.083 25.5512 109.77 25.41C109.06 25.0993 108.468 24.5704 108.08 23.9C107.62 23.1674 107.364 22.3249 107.34 21.46C107.291 21.114 107.319 20.7613 107.423 20.4275C107.527 20.0938 107.703 19.7872 107.94 19.53C108.144 19.3349 108.402 19.2065 108.681 19.1618C108.96 19.1172 109.245 19.1584 109.5 19.28C109.755 19.3894 109.991 19.5379 110.2 19.72C110.376 19.8678 110.531 20.0394 110.66 20.23L110.78 20.44V19.86L112.07 20.36L112.19 23.98C112.199 24.2412 112.283 24.4943 112.43 24.71C112.552 24.9153 112.733 25.0791 112.95 25.18C113.57 25.42 113.86 24.88 113.82 23.57C113.752 22.2637 113.319 21.0027 112.57 19.93C111.904 18.8367 110.905 17.9852 109.72 17.5C109.292 17.2847 108.809 17.202 108.333 17.2625C107.858 17.3231 107.411 17.5242 107.05 17.84C106.67 18.2339 106.383 18.7077 106.21 19.2268C106.037 19.7458 105.983 20.297 106.05 20.84C106.127 22.2157 106.573 23.5454 107.34 24.69C107.949 25.8286 108.915 26.7352 110.09 27.27C110.496 27.4382 110.931 27.5232 111.37 27.52C111.659 27.5378 111.948 27.4828 112.21 27.36L112.47 27.22L113.24 28.67L113.12 28.76C112.997 28.8281 112.87 28.8882 112.74 28.94C112.532 29.0289 112.314 29.0894 112.09 29.12C111.808 29.1603 111.522 29.1603 111.24 29.12C110.866 29.0729 110.5 28.9788 110.15 28.84C109.159 28.4162 108.28 27.7694 107.58 26.95C106.744 26.0325 106.068 24.9812 105.58 23.84C105.093 22.748 104.815 21.5744 104.76 20.38C104.689 19.3776 104.893 18.3748 105.35 17.48C105.729 16.7294 106.385 16.1556 107.18 15.88C108.009 15.6019 108.913 15.6484 109.71 16.01C111.27 16.6664 112.588 17.7916 113.48 19.23L113.49 19.21ZM110.66 23.79C110.768 23.6494 110.847 23.4883 110.892 23.3165C110.937 23.1447 110.946 22.9656 110.92 22.79C110.906 22.3714 110.789 21.9627 110.58 21.6C110.402 21.2886 110.129 21.043 109.8 20.9C109.675 20.8315 109.531 20.8043 109.389 20.8223C109.247 20.8402 109.114 20.9024 109.01 21C108.898 21.1248 108.814 21.2729 108.766 21.4337C108.718 21.5945 108.705 21.7639 108.73 21.93C108.742 22.3547 108.866 22.7687 109.09 23.13C109.276 23.4569 109.564 23.7134 109.91 23.86C110.031 23.9224 110.168 23.9454 110.303 23.9257C110.437 23.9059 110.562 23.8445 110.66 23.75" fill="#F47B56"/>
<path d="M189.44 88.85C190.442 90.2922 191.021 91.9861 191.11 93.74C191.226 94.541 191.033 95.356 190.57 96.02C190.37 96.2352 190.105 96.3784 189.816 96.4273C189.527 96.4761 189.229 96.4278 188.97 96.29C188.647 96.1621 188.354 95.968 188.11 95.72C187.894 95.5109 187.708 95.2718 187.56 95.01L187.4 94.71C187.359 94.7893 187.309 94.8632 187.25 94.93C187.095 95.049 186.913 95.128 186.72 95.16C186.399 95.2192 186.069 95.1808 185.77 95.05C185.061 94.7373 184.472 94.2043 184.09 93.53C183.621 92.8008 183.362 91.9567 183.34 91.09C183.291 90.7447 183.318 90.3929 183.42 90.0594C183.522 89.7259 183.696 89.4188 183.93 89.16C184.132 88.9624 184.391 88.8322 184.67 88.7875C184.95 88.7427 185.236 88.7855 185.49 88.91C185.75 89.0095 185.988 89.159 186.19 89.35C186.367 89.5002 186.525 89.6715 186.66 89.86L186.78 90.07V89.5L188.06 89.99L188.19 93.61C188.201 93.8663 188.28 94.115 188.42 94.33C188.543 94.5385 188.728 94.703 188.95 94.8C189.6 95.05 189.86 94.51 189.82 93.19C189.759 91.8869 189.329 90.628 188.58 89.56C187.91 88.4732 186.917 87.6235 185.74 87.13C185.311 86.9125 184.827 86.8277 184.35 86.8865C183.872 86.9452 183.423 87.1449 183.06 87.46C182.68 87.8539 182.393 88.3277 182.22 88.8468C182.047 89.3658 181.993 89.917 182.06 90.46C182.133 91.8366 182.579 93.1674 183.35 94.31C183.983 95.4189 184.958 96.2927 186.13 96.8C186.535 96.9714 186.97 97.0598 187.41 97.06C187.698 97.0761 187.986 97.0248 188.25 96.91L188.51 96.76L189.28 98.21L189.16 98.3C189.037 98.3681 188.91 98.4282 188.78 98.48C188.572 98.5689 188.354 98.6294 188.13 98.66C187.845 98.7 187.555 98.7 187.27 98.66C186.9 98.6116 186.537 98.5176 186.19 98.38C185.201 97.954 184.322 97.3076 183.62 96.49C182.782 95.5706 182.105 94.5156 181.62 93.37C181.129 92.283 180.85 91.1119 180.8 89.92C180.728 88.9208 180.932 87.921 181.39 87.03C181.771 86.2763 182.426 85.6968 183.22 85.41C184.054 85.1419 184.958 85.1882 185.76 85.54C187.298 86.2391 188.583 87.3948 189.44 88.85ZM186.6 93.42C186.713 93.282 186.796 93.1214 186.843 92.949C186.889 92.7766 186.898 92.5963 186.87 92.42C186.859 92.001 186.742 91.5916 186.53 91.23C186.36 90.9141 186.089 90.6642 185.76 90.52C185.632 90.4536 185.487 90.4276 185.344 90.4454C185.202 90.4633 185.068 90.5242 184.96 90.62C184.849 90.7461 184.766 90.8941 184.716 91.0543C184.666 91.2144 184.651 91.3833 184.67 91.55C184.692 91.9714 184.819 92.3806 185.04 92.74C185.225 93.0696 185.513 93.3296 185.86 93.48C185.979 93.5416 186.115 93.5641 186.248 93.5444C186.381 93.5247 186.504 93.4636 186.6 93.37" fill="#F47B56"/>
<path opacity="0.25" d="M61.25 116.27L39.48 103.88L17.71 116.29C17.71 116.29 29.82 123.86 40.66 130.21C47.55 125.35 53.66 119.79 61.25 116.27Z" fill="url(#paint4_linear_3_226)"/>
<path fill-rule="evenodd" clip-rule="evenodd" d="M21.93 81.47V108.41L42.91 120.42L66.61 106.41V79.48" fill="black"/>
<path fill-rule="evenodd" clip-rule="evenodd" d="M21.93 81.47V108.41L42.91 120.42L66.61 106.41V79.48" fill="#FF9271"/>
<path d="M42.91 93.49V120.42L66.61 106.41V79.48L42.91 93.49Z" fill="#DF5C34"/>
<path d="M21.93 81.47L46.28 67.59L66.61 79.48L42.91 93.49L21.93 81.47Z" fill="#F47B56"/>
<path d="M43.47 73.78C45.9373 73.6092 48.4016 74.1507 50.57 75.34C51.82 76.07 52.5 76.83 52.57 77.63C52.598 78.0652 52.4898 78.4984 52.2605 78.8693C52.0311 79.2403 51.6919 79.5306 51.29 79.7C50.8309 79.9807 50.3269 80.1803 49.8 80.29C49.3642 80.3914 48.9174 80.4384 48.47 80.43H47.99C48.0305 80.5403 48.0607 80.6541 48.08 80.77C48.0593 81.0444 47.9699 81.3092 47.82 81.54C47.56 81.9566 47.1988 82.3006 46.77 82.54C45.7567 83.1386 44.5967 83.4433 43.42 83.42C42.2214 83.4413 41.0395 83.1371 40 82.54C39.5845 82.356 39.2235 82.0679 38.9519 81.7035C38.6804 81.3391 38.5075 80.9108 38.45 80.46C38.4557 80.0404 38.5785 79.6308 38.8047 79.2774C39.0309 78.924 39.3514 78.6409 39.73 78.46C40.0858 78.2524 40.4698 78.0974 40.87 78C41.1956 77.9045 41.5312 77.8475 41.87 77.83H42.22L41.58 77.44L43.38 76.32L47.55 78.78C47.8695 78.9524 48.2269 79.0427 48.59 79.0427C48.9531 79.0427 49.3105 78.9524 49.63 78.78C50.51 78.22 50.19 77.5 48.68 76.6C47.0679 75.7137 45.2356 75.3077 43.4 75.43C41.4624 75.4518 39.5662 75.9941 37.91 77C36.4 78 35.65 79.07 35.66 80.38C35.67 81.69 36.46 82.81 38.02 83.72C39.7232 84.652 41.6509 85.095 43.59 85C45.5264 85.0328 47.4339 84.5274 49.1 83.54C49.675 83.1976 50.1915 82.7655 50.63 82.26C50.9199 81.9474 51.1382 81.5754 51.27 81.17L51.36 80.76L53.74 80.9V81.11C53.694 81.3063 53.6372 81.4999 53.57 81.69C53.4599 81.9886 53.3226 82.2764 53.16 82.55C52.9126 82.9123 52.6277 83.2474 52.31 83.55C51.8904 83.956 51.4277 84.3148 50.93 84.62C49.4996 85.4753 47.9172 86.0458 46.27 86.3C44.4721 86.6099 42.6372 86.6402 40.83 86.39C39.1879 86.1982 37.6004 85.6815 36.16 84.87C34.9997 84.2491 34.0704 83.2707 33.51 82.08C33.2822 81.5615 33.1646 81.0013 33.1646 80.435C33.1646 79.8687 33.2822 79.3085 33.51 78.79C34.0588 77.5752 34.9799 76.5666 36.14 75.91C38.3465 74.5505 40.8787 73.8112 43.47 73.77V73.78ZM45.8 80.41C45.7607 80.1898 45.6669 79.9829 45.5272 79.8083C45.3875 79.6336 45.2062 79.4967 45 79.41C44.4934 79.1272 43.9201 78.9856 43.34 79C42.7954 78.9791 42.2565 79.1181 41.79 79.4C41.6011 79.4909 41.4411 79.6326 41.3281 79.8092C41.2151 79.9858 41.1534 80.1904 41.15 80.4C41.1782 80.6172 41.2621 80.8234 41.3935 80.9987C41.5249 81.1739 41.6994 81.3121 41.9 81.4C42.4186 81.6913 43.0053 81.8397 43.6 81.83C44.1725 81.8384 44.7362 81.6897 45.23 81.4C45.4221 81.317 45.5832 81.1759 45.6909 80.9965C45.7985 80.8171 45.8472 80.6085 45.83 80.4" fill="#3E2928"/>
<defs>
<linearGradient id="paint0_linear_3_226" x1="138.045" y1="101.329" x2="131.281" y2="110.841" gradientUnits="userSpaceOnUse">
<stop stop-color="#7F3500"/>
<stop offset="1" stop-color="#231F20" stop-opacity="0"/>
</linearGradient>
<linearGradient id="paint1_linear_3_226" x1="109.771" y1="144.053" x2="95.2651" y2="160.132" gradientUnits="userSpaceOnUse">
<stop offset="0.03" stop-color="#7F3500"/>
<stop offset="1" stop-color="#231F20" stop-opacity="0"/>
</linearGradient>
<linearGradient id="paint2_linear_3_226" x1="77.7763" y1="75.99" x2="66.7435" y2="87.9383" gradientUnits="userSpaceOnUse">
<stop stop-color="#843C09" stop-opacity="0.85"/>
<stop offset="1" stop-color="#231F20" stop-opacity="0"/>
</linearGradient>
<linearGradient id="paint3_linear_3_226" x1="180.668" y1="75.4464" x2="174.129" y2="70.2176" gradientUnits="userSpaceOnUse">
<stop stop-color="white" stop-opacity="0"/>
<stop offset="0.99" stop-color="#DC841E"/>
</linearGradient>
<linearGradient id="paint4_linear_3_226" x1="53.9582" y1="110.389" x2="39.2639" y2="126.744" gradientUnits="userSpaceOnUse">
<stop offset="0.03" stop-color="#7F3500"/>
<stop offset="1" stop-color="#231F20" stop-opacity="0"/>
</linearGradient>
</defs>
</svg>
