<svg width="1440" height="1024" viewBox="0 0 1440 1024" fill="none" xmlns="http://www.w3.org/2000/svg">
<rect width="1440" height="1024" fill="#1E1E1E"/>
<rect width="1440" height="1024" fill="white"/>
<path d="M673.659 728.571L392.029 578.185C383.039 573.565 375.401 566.248 384.266 561.616L671.109 422.516C675.385 420.332 681.916 418.854 686.231 421.116L981.866 576.217C990.856 580.836 992.292 593.699 983.223 598.194L711.06 728.996C705.334 731.768 698.873 733.186 692.314 733.112C685.756 733.037 679.326 731.472 673.659 728.571Z" fill="#5B36A0"/>
<path d="M673.756 721.814L392.126 571.428C383.136 566.809 375.498 559.492 384.363 554.859L671.206 415.759C675.483 413.575 682.013 412.098 686.328 414.36L981.963 569.46C990.953 574.08 992.389 586.943 983.32 591.438L711.157 722.239C705.431 725.011 698.97 726.43 692.412 726.355C685.853 726.281 679.423 724.716 673.756 721.814Z" fill="#6862E6"/>
<path opacity="0.25" d="M699.884 529.126L643.54 556.18C643.54 556.18 729.124 603.345 746.676 610.064L779.511 570.122" fill="url(#paint0_linear_0_1)"/>
<path opacity="0.25" d="M678.672 662.567L623.077 633.951L566.784 661.027C566.784 661.027 595.728 676.98 623.406 691.634C641.105 680.954 659.011 670.165 678.672 662.567Z" fill="url(#paint1_linear_0_1)"/>
<path opacity="0.46" d="M560.481 489.046L524.706 506.224C524.706 506.224 527.482 522.474 544.957 529.214L591.912 503.889" fill="url(#paint2_linear_0_1)"/>
<path d="M577.615 506.984C589.448 507.154 599.125 501.402 599.229 494.137C599.334 486.873 589.826 480.846 577.992 480.676C566.159 480.506 556.482 486.257 556.378 493.522C556.273 500.787 565.781 506.814 577.615 506.984Z" fill="#68E1FD"/>
<path d="M577.807 491.787C586.671 491.914 593.894 489.454 593.94 486.293C593.985 483.132 586.836 480.466 577.972 480.339C569.107 480.211 561.885 482.671 561.839 485.832C561.794 488.993 568.943 491.659 577.807 491.787Z" fill="#974C26"/>
<path d="M577.462 476.425C577.499 473.843 577.536 471.262 577.239 468.676L577.036 466.652L576.901 465.348C576.875 464.893 576.804 464.442 576.688 463.998L576.402 462.422C574.776 453.624 570.991 445.229 565.307 437.812C563.062 442.306 561.898 447.156 561.887 452.065C561.866 453.524 562 454.963 562.109 456.334L562.097 457.165C562.087 457.861 562.359 458.628 562.504 459.259C563.127 461.896 563.949 464.496 564.965 467.04C565.879 469.376 567.008 471.645 568.341 473.824C569.771 476.292 571.306 478.694 572.996 481.053C574.282 482.89 575.519 484.524 576.757 486.091C577.183 482.882 577.418 479.656 577.462 476.425ZM569.441 447.324C569.523 446.992 569.528 446.648 569.456 446.314C569.862 446.679 570.268 447.067 570.649 447.454C570.25 447.381 569.84 447.375 569.44 447.436L569.441 447.324Z" fill="#999A1C"/>
<path d="M582.937 478.569C584.609 476.422 586.144 474.195 587.535 471.899C587.929 471.299 588.272 470.72 588.641 470.119L589.326 468.939L589.987 467.714C590.226 467.223 590.49 466.733 590.728 466.265C594.807 458.113 596.812 449.28 596.606 440.372C591.916 443.079 587.923 446.607 584.88 450.734C583.988 451.934 583.173 453.157 582.409 454.403L582.067 454.937L582.064 455.161L581.11 457.101C580.011 459.604 579.115 462.172 578.427 464.786C577.746 467.191 577.281 469.639 577.035 472.108C576.713 474.842 576.519 477.579 576.479 480.34C576.447 482.584 576.42 484.447 576.548 486.335C578.642 483.851 580.891 481.256 582.937 478.569ZM594.251 450.307C594.52 450.054 594.718 449.749 594.829 449.418C594.822 449.934 595.047 450.409 595.117 450.881C594.869 450.647 594.576 450.452 594.251 450.307Z" fill="#999A1C"/>
<path d="M582.715 485.009C584.398 484.293 586.055 483.553 587.713 482.724L588.983 482.091L589.787 481.653L590.591 481.171L591.526 480.601C596.743 477.359 601.094 473.171 604.282 468.323C600.749 468.476 597.29 469.251 594.113 470.602C593.207 470.993 592.326 471.429 591.522 471.889L591.134 472.086L589.887 472.876C588.35 473.902 586.898 475.021 585.543 476.226C584.297 477.333 583.145 478.517 582.096 479.769C580.892 481.211 579.791 482.632 578.716 484.054C577.641 485.475 577.192 486.277 576.533 487.323C578.473 486.655 580.619 485.877 582.715 485.009ZM599.302 472.966C599.538 472.901 599.758 472.798 599.95 472.661C599.945 472.976 599.684 473.264 599.525 473.553C599.502 473.353 599.425 473.16 599.302 472.989L599.302 472.966Z" fill="#999A1C"/>
<path d="M577.462 476.425C577.499 473.843 577.536 471.262 577.239 468.676L577.036 466.652L576.901 465.348C576.875 464.893 576.804 464.442 576.688 463.998L576.402 462.422C574.776 453.624 570.991 445.229 565.307 437.812C563.062 442.306 561.898 447.156 561.887 452.065C561.866 453.524 562 454.963 562.109 456.334L562.097 457.165C562.087 457.861 562.359 458.628 562.504 459.259C563.127 461.896 563.949 464.496 564.965 467.04C565.879 469.376 567.008 471.645 568.341 473.824C569.771 476.292 571.306 478.694 572.996 481.053C574.282 482.89 575.519 484.524 576.757 486.091C577.183 482.882 577.418 479.656 577.462 476.425ZM569.441 447.324C569.523 446.992 569.528 446.648 569.456 446.314C569.862 446.679 570.268 447.067 570.649 447.454C570.25 447.381 569.84 447.375 569.44 447.436L569.441 447.324Z" fill="#999A1C"/>
<path d="M582.937 478.569C584.609 476.422 586.144 474.195 587.535 471.899C587.929 471.299 588.272 470.72 588.641 470.119L589.326 468.939L589.987 467.714C590.226 467.223 590.49 466.733 590.728 466.265C594.807 458.113 596.812 449.28 596.606 440.372C591.916 443.079 587.923 446.607 584.88 450.734C583.988 451.934 583.173 453.157 582.409 454.403L582.067 454.937L582.064 455.161L581.11 457.101C580.011 459.604 579.115 462.172 578.427 464.786C577.746 467.191 577.281 469.639 577.035 472.108C576.713 474.842 576.519 477.579 576.479 480.34C576.447 482.584 576.42 484.447 576.548 486.335C578.642 483.851 580.891 481.256 582.937 478.569ZM594.251 450.307C594.52 450.054 594.718 449.749 594.829 449.418C594.822 449.934 595.047 450.409 595.117 450.881C594.869 450.647 594.576 450.452 594.251 450.307Z" fill="#999A1C"/>
<path d="M582.715 485.009C584.398 484.293 586.055 483.553 587.713 482.724L588.983 482.091L589.787 481.653L590.591 481.171L591.526 480.601C596.743 477.359 601.094 473.171 604.282 468.323C600.749 468.476 597.29 469.251 594.113 470.602C593.207 470.993 592.326 471.429 591.522 471.889L591.134 472.086L589.887 472.876C588.35 473.902 586.898 475.021 585.543 476.226C584.297 477.333 583.145 478.517 582.096 479.769C580.892 481.211 579.791 482.632 578.716 484.054C577.641 485.475 577.192 486.277 576.533 487.323C578.473 486.655 580.619 485.877 582.715 485.009ZM599.302 472.966C599.538 472.901 599.758 472.798 599.95 472.661C599.945 472.976 599.684 473.264 599.525 473.553C599.502 473.353 599.425 473.16 599.302 472.989L599.302 472.966Z" fill="#999A1C"/>
<path d="M722.315 518.559L691.263 531.113C690.072 531.565 689.049 532.295 688.305 533.223C687.561 534.151 687.125 535.241 687.045 536.373C686.979 537.502 687.265 538.626 687.871 539.627C688.477 540.628 689.381 541.468 690.488 542.058L763.462 580.534C765.039 581.366 766.922 581.635 768.715 581.284C770.509 580.933 772.075 579.989 773.085 578.651L791.284 554.687" fill="#A1482D"/>
<path d="M891.767 458.308L646.447 330.535C644.766 329.661 642.853 329.186 640.9 329.16C638.947 329.133 637.022 329.555 635.319 330.384C633.615 331.212 632.193 332.418 631.195 333.88C630.197 335.342 629.658 337.009 629.633 338.713L627.776 467.964C627.766 469.373 628.179 470.761 628.973 471.989C629.768 473.218 630.917 474.245 632.306 474.967L893.839 611.414C894.736 611.891 895.761 612.152 896.81 612.171C897.858 612.191 898.893 611.968 899.809 611.525C900.724 611.082 901.488 610.435 902.023 609.649C902.558 608.864 902.845 607.968 902.854 607.053L904.703 478.386C904.759 474.348 903.593 470.365 901.322 466.839C899.05 463.313 895.754 460.37 891.767 458.308Z" fill="#F47B56"/>
<path d="M646.332 340.3L884.25 464.037C886.787 465.362 888.883 467.244 890.328 469.495C891.772 471.747 892.514 474.288 892.478 476.863L891.087 573.745C891.052 574.663 890.744 575.557 890.193 576.337C889.642 577.118 888.868 577.76 887.946 578.2C887.023 578.639 885.985 578.862 884.933 578.845C883.881 578.828 882.85 578.573 881.943 578.104L639.242 452.39C638.339 451.924 637.59 451.261 637.069 450.466C636.548 449.671 636.273 448.772 636.272 447.857L637.757 344.443C637.777 343.584 638.053 342.745 638.559 342.009C639.064 341.273 639.782 340.666 640.64 340.248C641.498 339.829 642.468 339.614 643.452 339.623C644.437 339.632 645.403 339.865 646.255 340.299L646.332 340.3Z" fill="white"/>
<path d="M744.541 524.491C747.379 524.056 749.208 521.406 748.625 518.573C748.043 515.74 745.269 513.796 742.431 514.231C739.592 514.666 737.764 517.316 738.346 520.149C738.929 522.983 741.702 524.926 744.541 524.491Z" fill="#AB643C"/>
<path opacity="0.32" d="M708.851 472.654L819.385 532.639L874.804 505.527L777.214 454.193" fill="url(#paint3_linear_0_1)"/>
<path d="M846.652 463.026L727.171 397.232C726.531 396.898 725.801 396.718 725.057 396.713C724.313 396.708 723.581 396.877 722.938 397.202C722.296 397.527 721.765 397.997 721.402 398.563C721.039 399.129 720.856 399.77 720.873 400.419L720.349 436.919C720.328 437.579 720.504 438.234 720.861 438.818C721.218 439.402 721.744 439.895 722.385 440.248L841.886 504.673C842.512 504.997 843.224 505.173 843.95 505.183C844.676 505.194 845.393 505.038 846.027 504.732C846.656 504.416 847.18 503.964 847.549 503.418C847.917 502.873 848.117 502.253 848.13 501.619L849.236 467.598C849.302 466.707 849.097 465.815 848.644 465.013C848.19 464.21 847.504 463.525 846.652 463.026Z" fill="#E2AC00"/>
<path d="M817.575 481.378C821.82 486.715 829.387 488.283 834.452 484.943C839.516 481.603 840.236 474.519 835.989 469.249C831.743 463.979 824.177 462.344 819.086 465.706C813.995 469.068 813.329 476.063 817.575 481.378Z" fill="white"/>
<path d="M806.132 455.933L757.375 429.413C756.957 429.253 756.487 429.23 756.053 429.35C755.619 429.47 755.251 429.723 755.016 430.063C754.781 430.403 754.697 430.807 754.778 431.198C754.859 431.59 755.1 431.943 755.457 432.192L804.188 458.689C804.602 458.844 805.066 458.865 805.495 458.747C805.923 458.629 806.289 458.38 806.524 458.046C806.76 457.712 806.85 457.315 806.777 456.927C806.705 456.539 806.476 456.186 806.132 455.933Z" fill="#F2F2F2"/>
<path d="M803.949 466.386L736.761 429.858C736.35 429.724 735.898 429.722 735.487 429.852C735.075 429.981 734.73 430.235 734.513 430.566C734.294 430.894 734.215 431.279 734.29 431.654C734.364 432.029 734.588 432.369 734.921 432.615L802.031 469.165C802.448 469.344 802.927 469.38 803.371 469.266C803.816 469.151 804.195 468.896 804.433 468.549C804.705 468.194 804.807 467.759 804.716 467.339C804.626 466.918 804.351 466.544 803.95 466.296L803.949 466.386Z" fill="#F2F2F2"/>
<path d="M822.527 469.751L703.097 403.981C702.457 403.646 701.727 403.467 700.983 403.462C700.238 403.457 699.507 403.626 698.864 403.951C698.221 404.276 697.691 404.746 697.328 405.312C696.965 405.878 696.782 406.519 696.799 407.168L696.275 443.645C696.254 444.306 696.43 444.96 696.787 445.544C697.144 446.128 697.67 446.622 698.311 446.975L817.814 511.31C818.446 511.645 819.169 511.827 819.907 511.835C820.646 511.844 821.373 511.679 822.011 511.357C822.65 511.036 823.177 510.57 823.537 510.008C823.898 509.447 824.078 508.811 824.059 508.166L825.191 474.168C825.236 473.278 825.014 472.392 824.548 471.597C824.081 470.803 823.385 470.128 822.529 469.639L822.527 469.751Z" fill="#F47B56"/>
<path d="M793.449 488.126C797.695 493.441 805.261 495.031 810.326 491.669C815.391 488.306 816.11 481.244 811.864 475.975C807.618 470.705 800.052 469.069 794.961 472.431C789.87 475.793 789.204 482.789 793.449 488.126Z" fill="white"/>
<path d="M781.981 462.658L733.223 436.161C732.805 435.957 732.312 435.902 731.849 436.008C731.387 436.114 730.99 436.372 730.742 436.729C730.494 437.085 730.414 437.512 730.519 437.92C730.624 438.328 730.906 438.686 731.306 438.917L780.037 465.437C780.455 465.61 780.931 465.643 781.375 465.53C781.818 465.416 782.197 465.163 782.438 464.82C782.576 464.645 782.673 464.448 782.724 464.24C782.774 464.032 782.777 463.818 782.733 463.608C782.688 463.399 782.596 463.2 782.463 463.021C782.33 462.843 782.158 462.689 781.956 462.568L781.981 462.658Z" fill="#F2F2F2"/>
<path d="M779.797 473.179L712.636 436.583C712.219 436.405 711.74 436.369 711.296 436.483C710.851 436.597 710.472 436.853 710.235 437.2C709.962 437.555 709.861 437.989 709.951 438.41C710.041 438.831 710.316 439.205 710.717 439.452L777.829 475.89C778.246 476.069 778.724 476.105 779.169 475.99C779.614 475.876 779.992 475.62 780.23 475.273C780.502 474.918 780.604 474.484 780.514 474.063C780.424 473.643 780.149 473.269 779.748 473.021L779.797 473.179Z" fill="#F2F2F2"/>
<path d="M792.268 473.605L672.812 407.857C672.174 407.514 671.442 407.329 670.695 407.32C669.947 407.311 669.211 407.479 668.565 407.806C667.92 408.132 667.388 408.606 667.027 409.176C666.666 409.746 666.489 410.392 666.515 411.044L665.991 447.521C665.979 448.18 666.163 448.83 666.524 449.41C666.885 449.99 667.412 450.478 668.053 450.829L787.552 515.365C788.186 515.699 788.91 515.879 789.649 515.887C790.388 515.895 791.116 515.73 791.756 515.409C792.395 515.088 792.925 514.624 793.288 514.063C793.652 513.503 793.837 512.867 793.823 512.222L794.929 478.224C794.972 477.336 794.752 476.453 794.291 475.66C793.829 474.867 793.141 474.19 792.293 473.695L792.268 473.605Z" fill="#68E1FD"/>
<path d="M792.268 473.605L672.812 407.857C672.174 407.514 671.442 407.329 670.695 407.32C669.947 407.311 669.211 407.479 668.565 407.806C667.92 408.132 667.388 408.606 667.027 409.176C666.666 409.746 666.489 410.392 666.515 411.044L665.991 447.521C665.979 448.18 666.163 448.83 666.524 449.41C666.885 449.99 667.412 450.478 668.053 450.829L787.552 515.365C788.186 515.699 788.91 515.879 789.649 515.887C790.388 515.895 791.116 515.73 791.756 515.409C792.395 515.088 792.925 514.624 793.288 514.063C793.652 513.503 793.837 512.867 793.823 512.222L794.929 478.224C794.972 477.336 794.752 476.453 794.29 475.66C793.829 474.867 793.141 474.19 792.293 473.695L792.268 473.605Z" fill="#68E1FD"/>
<path d="M792.239 473.345L672.782 407.596C672.144 407.254 671.412 407.068 670.665 407.059C669.917 407.05 669.181 407.218 668.536 407.545C667.89 407.872 667.358 408.345 666.997 408.916C666.636 409.486 666.459 410.131 666.485 410.784L665.961 447.26C665.949 447.919 666.133 448.57 666.494 449.149C666.855 449.729 667.382 450.218 668.023 450.568L787.522 515.105C788.156 515.439 788.88 515.619 789.619 515.626C790.359 515.634 791.086 515.469 791.726 515.148C792.365 514.828 792.895 514.363 793.258 513.803C793.622 513.242 793.807 512.607 793.793 511.962L794.899 477.963C794.942 477.076 794.722 476.193 794.261 475.399C793.799 474.606 793.111 473.929 792.263 473.435L792.239 473.345Z" fill="#68E1FD"/>
<path d="M763.165 491.979C767.41 497.316 774.977 498.885 780.068 495.523C785.159 492.161 785.826 485.12 781.58 479.828C777.334 474.536 769.767 472.923 764.677 476.285C759.586 479.647 758.971 486.643 763.165 491.979Z" fill="white"/>
<path d="M751.722 466.512L702.964 440.059C702.546 439.899 702.077 439.877 701.643 439.996C701.209 440.116 700.84 440.37 700.606 440.71C700.371 441.05 700.286 441.453 700.367 441.845C700.448 442.236 700.69 442.589 701.046 442.838L749.778 469.335C750.194 469.519 750.674 469.558 751.121 469.444C751.567 469.329 751.946 469.07 752.179 468.719C752.317 468.544 752.414 468.347 752.465 468.139C752.515 467.931 752.518 467.716 752.473 467.507C752.429 467.298 752.337 467.098 752.204 466.92C752.071 466.741 751.898 466.587 751.697 466.466L751.722 466.512Z" fill="#F2F2F2"/>
<path d="M749.514 476.987L682.351 440.459C681.934 440.299 681.464 440.277 681.03 440.396C680.596 440.516 680.227 440.77 679.993 441.11C679.758 441.45 679.673 441.853 679.754 442.245C679.836 442.636 680.077 442.989 680.434 443.238L747.596 479.766C748.015 479.943 748.495 479.978 748.941 479.864C749.387 479.75 749.768 479.495 750.01 479.149C750.252 478.803 750.338 478.39 750.251 477.991C750.164 477.592 749.91 477.234 749.539 476.988L749.514 476.987Z" fill="#F2F2F2"/>
<path d="M634.339 467.767C626.477 473.497 620.488 480.937 616.973 489.341C610.772 503.688 625.3 527.494 625.3 527.494L648.835 511.734" fill="#FF8F6F"/>
<path d="M629.077 658.577L622.793 655.456L624.579 647.578C624.579 647.578 633.981 648.499 634.814 651.43" fill="#003B94"/>
<path d="M631.394 658.498C632.845 657.755 634.321 657.103 635.822 656.451C639.5 654.753 644.799 653.01 647.11 649.765C647.576 649.111 647.802 648.348 647.758 647.577C647.714 646.806 647.402 646.065 646.863 645.451C643.595 641.902 636.285 647.544 632.611 643.607C631.902 642.834 631.742 630.707 631.742 630.707L617.599 633.805C617.599 633.805 614.856 658.171 615.092 659.678C615.327 661.186 620.195 662.648 620.195 662.648C621.643 662.4 623.027 661.926 624.279 661.247C625.785 660.348 624.457 648.879 626.466 650.502C628.475 652.125 629.054 658.419 629.054 658.419C629.828 658.522 630.613 658.548 631.394 658.498Z" fill="#F47B56"/>
<path d="M655.838 670.771L649.554 667.672L651.313 659.817C651.313 659.817 660.716 660.738 661.549 663.646" fill="#003B94"/>
<path d="M658.206 670.67C659.658 669.905 661.159 669.253 662.635 668.601C666.313 666.903 671.611 665.182 673.921 662.027C674.386 661.369 674.611 660.602 674.567 659.828C674.523 659.054 674.212 658.309 673.674 657.691C670.407 654.141 663.096 659.784 659.448 655.87C658.713 655.096 658.553 642.947 658.553 642.947L644.41 646.067C644.41 646.067 641.64 670.522 641.903 671.963C642.165 673.403 647.006 674.91 647.006 674.91C648.454 674.676 649.839 674.209 651.09 673.532C652.57 672.61 651.268 661.141 653.251 662.786C655.234 664.431 655.865 670.682 655.865 670.682C656.643 670.766 657.43 670.762 658.206 670.67Z" fill="#F47B56"/>
<path d="M611.039 590.805L606.202 639.187C606.202 639.187 612.698 647.25 634.959 643.147L635.634 610.489" fill="#3E2928"/>
<path d="M636.519 600.758C635.997 604.927 635.799 650.95 635.799 650.95C635.799 650.95 641.802 661.072 668.67 651.422L668.846 612.314" fill="#3E2928"/>
<path d="M608.725 606.78C610.51 607.906 611.233 602.326 613.124 603.251C620.003 606.858 627.322 609.78 634.944 611.961L635.098 611.964C635.479 611.834 635.904 611.84 636.281 611.981C636.47 612.046 636.642 612.145 636.786 612.27C636.931 612.396 637.044 612.546 637.12 612.711C641.822 613.996 646.61 615.024 651.457 615.791C657.694 616.756 662.896 612.812 669.305 612.612C669.612 591.22 670.487 530.343 660.385 517.198L629.648 507.776C629.462 510.019 614.405 524.8 614.502 543.1C614.226 558.658 612.938 574.186 610.644 589.609C610.501 590.595 608.742 605.613 608.725 606.78Z" fill="#3E2928"/>
<path d="M663.542 492.614L660.36 517.108C660.36 517.108 637.2 517.584 627.46 511.472L627.759 490.618" fill="#FF8F6F"/>
<path d="M693.097 476.873L690.69 479.645C691.987 477.388 693.128 475.065 694.109 472.689C694.801 471.083 691.8 470.411 691.134 471.995L690.762 472.843C691.058 471.972 691.353 471.1 691.623 470.229C691.727 469.882 691.668 469.513 691.461 469.202C691.253 468.892 690.912 468.666 690.515 468.574C690.117 468.482 689.694 468.531 689.339 468.711C688.984 468.892 688.727 469.188 688.623 469.534C687.952 471.806 687.138 474.043 686.185 476.235C686.724 474.289 687.121 472.315 687.377 470.325C687.607 468.622 684.494 468.644 684.29 470.281C684.003 472.551 683.506 474.796 682.804 476.995C682.809 476.242 682.743 475.49 682.605 474.747C682.583 474.553 682.513 474.365 682.4 474.197C682.287 474.029 682.133 473.884 681.95 473.772C681.954 473.48 681.779 473.186 681.68 472.87C681.559 472.569 681.322 472.313 681.011 472.145C680.7 471.977 680.332 471.907 679.97 471.947C679.61 471.99 679.279 472.141 679.036 472.376C678.792 472.611 678.652 472.913 678.639 473.23L678.288 483.329C677.721 484.374 676.979 485.339 676.086 486.193C677.565 487.102 678.985 488.082 680.34 489.128C681.563 490.045 682.726 491.021 683.823 492.052C684.816 490.989 685.784 489.835 686.725 488.816L687.038 488.528C689.833 484.991 692.73 481.53 695.728 478.146C696.956 476.884 694.274 475.52 693.097 476.873Z" fill="#FFB5A9"/>
<path d="M649.28 470.025C649.28 470.025 660.123 472.74 664.588 478.911C667.287 483.181 669.656 487.603 671.679 492.147L679.886 481.353C679.886 481.353 689.622 484.12 693.422 488.283C693.422 488.283 681.53 510.205 671.394 511.946C661.259 513.686 650.772 498.695 650.772 498.695C650.772 498.695 648.471 504.858 649.003 498.243" fill="#FF8F6F"/>
<path d="M655.834 493.738C652.715 491.437 650.373 488.438 649.064 485.064C647.833 481.162 649.503 477.774 651.072 474.181C652.79 470.631 653.81 466.85 654.089 462.999C654.134 459.25 653.965 455.501 653.581 451.766C653.558 451.601 653.56 451.435 653.588 451.272C652.209 446.986 649.277 443.329 643.419 442.819C628.234 441.478 627.15 456.056 627.191 462.141C627.232 468.226 627.87 472.164 622.793 474.584C617.716 477.003 613.97 483.438 618.728 488.894C623.487 494.351 619.169 492.246 615.886 496.914C612.603 501.581 613.368 507.452 619.922 509.679C626.476 511.907 657.142 508.351 659.981 505.922C660.997 504.942 661.533 503.652 661.473 502.328C660.832 499.002 658.838 495.984 655.858 493.828L655.834 493.738Z" fill="#007F68"/>
<path d="M672.519 372.738C675.043 376.015 676.475 379.837 676.657 383.776C676.931 385.579 676.408 387.402 675.194 388.874C674.677 389.354 673.992 389.67 673.246 389.773C672.5 389.876 671.735 389.76 671.07 389.444C670.241 389.137 669.494 388.683 668.877 388.11C668.321 387.645 667.852 387.108 667.485 386.518L667.083 385.839C666.976 386.015 666.844 386.179 666.69 386.327C666.285 386.581 665.814 386.744 665.319 386.801C664.451 386.945 663.552 386.846 662.751 386.518C660.935 385.794 659.43 384.585 658.453 383.066C657.292 381.404 656.662 379.503 656.628 377.561C656.513 376.783 656.597 375.992 656.874 375.247C657.152 374.501 657.616 373.82 658.233 373.251C658.764 372.821 659.433 372.542 660.151 372.452C660.869 372.362 661.603 372.465 662.254 372.747C662.906 373.003 663.508 373.344 664.04 373.761C664.489 374.099 664.882 374.49 665.207 374.923L665.509 375.399L665.528 374.097L668.83 375.267L669.021 383.397C669.037 383.984 669.243 384.555 669.615 385.045C669.923 385.51 670.384 385.884 670.938 386.119C672.525 386.68 673.288 385.479 673.227 382.537C673.094 379.602 672.02 376.756 670.129 374.32C668.451 371.841 665.909 369.893 662.877 368.76C661.782 368.261 660.543 368.057 659.318 368.176C658.092 368.294 656.937 368.729 655.999 369.425C655.009 370.295 654.256 371.348 653.794 372.506C653.332 373.665 653.174 374.9 653.33 376.122C653.484 379.213 654.587 382.214 656.524 384.812C658.052 387.39 660.509 389.461 663.514 390.705C664.552 391.097 665.669 391.304 666.798 391.313C667.541 391.364 668.286 391.251 668.964 390.985L669.637 390.68L671.571 393.964L671.259 394.161C670.942 394.31 670.613 394.44 670.276 394.551C669.739 394.743 669.175 394.871 668.599 394.931C667.872 395.011 667.136 395.001 666.412 394.9C665.453 394.78 664.514 394.555 663.618 394.231C661.083 393.243 658.842 391.759 657.068 389.894C654.948 387.803 653.243 385.418 652.024 382.839C650.807 380.369 650.13 377.725 650.027 375.042C649.875 372.789 650.432 370.545 651.638 368.554C652.637 366.883 654.344 365.619 656.396 365.03C658.539 364.436 660.862 364.574 662.9 365.415C666.891 366.946 670.244 369.521 672.493 372.782L672.519 372.738ZM665.092 382.914C665.375 382.602 665.584 382.244 665.704 381.86C665.824 381.476 665.855 381.074 665.793 380.679C665.771 379.739 665.484 378.817 664.957 377.995C664.51 377.289 663.814 376.728 662.973 376.395C662.653 376.237 662.284 376.17 661.918 376.205C661.553 376.24 661.21 376.375 660.938 376.59C660.645 376.866 660.426 377.196 660.297 377.555C660.167 377.914 660.13 378.294 660.188 378.668C660.205 379.621 660.512 380.555 661.075 381.375C661.542 382.115 662.275 382.702 663.161 383.043C663.47 383.188 663.822 383.245 664.169 383.205C664.516 383.166 664.839 383.033 665.094 382.824" fill="#F47B56"/>
<path d="M865.627 531.866C868.158 535.141 869.592 538.964 869.765 542.905C870.037 544.707 869.514 546.529 868.303 548.003C867.782 548.478 867.096 548.79 866.35 548.889C865.604 548.988 864.841 548.869 864.178 548.55C863.351 548.251 862.604 547.804 861.985 547.238C861.435 546.761 860.966 546.217 860.593 545.624L860.191 544.945C860.084 545.121 859.952 545.285 859.798 545.433C859.396 545.695 858.925 545.865 858.428 545.93C857.601 546.051 856.751 545.953 855.988 545.648C854.174 544.92 852.676 543.701 851.715 542.174C850.533 540.52 849.893 538.615 849.865 536.669C849.75 535.892 849.832 535.103 850.105 534.358C850.378 533.614 850.835 532.931 851.445 532.358C851.972 531.922 852.641 531.64 853.361 531.55C854.081 531.459 854.816 531.566 855.465 531.855C856.131 532.088 856.737 532.432 857.252 532.868C857.702 533.212 858.102 533.603 858.444 534.031L858.746 534.506L858.764 533.227L862.041 534.374L862.259 542.505C862.278 543.081 862.474 543.642 862.827 544.13C863.136 544.602 863.608 544.978 864.175 545.204C865.839 545.789 866.525 544.587 866.465 541.622C866.35 538.695 865.285 535.853 863.392 533.428C861.705 530.964 859.178 529.02 856.166 527.869C855.07 527.364 853.827 527.156 852.598 527.271C851.368 527.385 850.207 527.816 849.262 528.51C848.272 529.38 847.519 530.433 847.057 531.592C846.596 532.751 846.437 533.986 846.593 535.208C846.736 538.3 847.84 541.304 849.787 543.897C851.379 546.41 853.86 548.407 856.857 549.589C857.893 549.989 859.01 550.204 860.141 550.22C860.881 550.267 861.623 550.163 862.307 549.915L862.98 549.588L864.914 552.871L864.602 553.068C864.285 553.217 863.956 553.347 863.619 553.458C863.082 553.65 862.518 553.778 861.942 553.838C861.206 553.918 860.462 553.907 859.729 553.807C858.779 553.684 857.849 553.46 856.961 553.138C854.429 552.146 852.189 550.662 850.411 548.801C848.284 546.706 846.579 544.313 845.367 541.723C844.139 539.265 843.46 536.626 843.37 533.949C843.216 531.703 843.773 529.466 844.98 527.483C845.985 525.806 847.687 524.529 849.74 523.915C851.894 523.344 854.216 523.481 856.269 524.3C860.201 525.926 863.469 528.568 865.627 531.866ZM858.175 542.02C858.471 541.714 858.689 541.357 858.814 540.971C858.939 540.586 858.969 540.182 858.902 539.785C858.887 538.844 858.599 537.921 858.066 537.101C857.638 536.386 856.949 535.815 856.108 535.479C855.782 535.325 855.41 535.261 855.042 535.296C854.673 535.331 854.327 535.463 854.047 535.674C853.758 535.953 853.54 536.282 853.406 536.64C853.273 536.997 853.227 537.376 853.271 537.751C853.314 538.697 853.628 539.621 854.184 540.436C854.65 541.182 855.382 541.776 856.27 542.127C856.575 542.27 856.923 542.325 857.265 542.286C857.607 542.246 857.926 542.114 858.177 541.907" fill="#F47B56"/>
<path opacity="0.25" d="M535.021 588.68L479.425 560.064L423.03 587.117C423.03 587.117 453.934 604.557 481.611 619.211C499.49 608.556 515.385 596.301 535.021 588.68Z" fill="url(#paint4_linear_0_1)"/>
<path fill-rule="evenodd" clip-rule="evenodd" d="M435.007 509.111L434.138 569.584L487.714 597.318L549.126 566.745L549.994 506.295" fill="black"/>
<path fill-rule="evenodd" clip-rule="evenodd" d="M435.007 509.111L434.138 569.584L487.714 597.318L549.126 566.745L549.994 506.295" fill="#FF9271"/>
<path d="M488.583 536.868L487.714 597.318L549.126 566.745L549.994 506.295L488.583 536.868Z" fill="#DF5C34"/>
<path d="M435.007 509.111L498.086 478.854L549.994 506.295L488.583 536.868L435.007 509.111Z" fill="#F47B56"/>
<path d="M490.659 492.645C497.01 492.353 503.331 493.66 508.87 496.409C512.062 498.094 513.787 499.825 513.941 501.624C513.999 502.602 513.707 503.57 513.105 504.394C512.503 505.218 511.621 505.858 510.582 506.223C509.392 506.836 508.089 507.265 506.73 507.492C505.606 507.704 504.455 507.793 503.305 507.757L502.07 507.74C502.171 507.989 502.245 508.245 502.291 508.506C502.229 509.121 501.99 509.713 501.597 510.225C500.915 511.151 499.975 511.909 498.864 512.431C496.238 513.737 493.245 514.378 490.219 514.283C487.136 514.286 484.105 513.56 481.451 512.181C480.388 511.753 479.469 511.092 478.782 510.264C478.095 509.436 477.664 508.469 477.531 507.455C477.559 506.513 477.888 505.598 478.482 504.813C479.075 504.028 479.908 503.404 480.888 503.012C481.81 502.559 482.802 502.226 483.835 502.022C484.675 501.82 485.541 501.704 486.413 501.677L487.313 501.69L485.679 500.791L490.345 498.344L500.992 504.02C501.808 504.418 502.724 504.634 503.658 504.648C504.592 504.661 505.514 504.472 506.342 504.096C508.623 502.872 507.823 501.244 503.969 499.168C499.851 497.119 495.151 496.14 490.425 496.347C485.441 496.324 480.546 497.471 476.254 499.668C472.338 501.857 470.374 504.231 470.357 507.172C470.341 510.113 472.337 512.656 476.32 514.756C480.671 516.911 485.615 517.977 490.606 517.836C495.585 517.981 500.508 516.917 504.825 514.762C506.315 514.014 507.657 513.063 508.802 511.945C509.557 511.254 510.131 510.427 510.483 509.522L510.728 508.605L516.845 509.007L516.838 509.479C516.713 509.917 516.561 510.35 516.382 510.774C516.089 511.44 515.727 512.081 515.3 512.69C514.652 513.494 513.908 514.235 513.081 514.903C511.989 515.799 510.787 516.587 509.497 517.254C505.79 519.121 501.702 520.343 497.457 520.853C492.823 521.482 488.102 521.482 483.462 520.854C479.244 520.362 475.177 519.144 471.499 517.269C468.534 515.833 466.176 513.602 464.773 510.909C464.203 509.736 463.919 508.474 463.937 507.203C463.955 505.932 464.276 504.679 464.879 503.523C466.329 500.817 468.731 498.587 471.736 497.156C477.455 494.186 483.992 492.62 490.659 492.623L490.659 492.645ZM496.438 507.614C496.344 507.118 496.109 506.65 495.756 506.253C495.402 505.856 494.94 505.542 494.412 505.34C493.118 504.686 491.648 504.347 490.156 504.358C488.756 504.291 487.365 504.583 486.156 505.199C485.667 505.396 485.251 505.708 484.955 506.1C484.659 506.492 484.493 506.949 484.478 507.42C484.543 507.908 484.752 508.374 485.085 508.772C485.417 509.171 485.861 509.487 486.375 509.692C487.699 510.365 489.203 510.72 490.733 510.72C492.206 510.76 493.66 510.447 494.94 509.815C495.437 509.636 495.856 509.325 496.138 508.926C496.421 508.528 496.553 508.061 496.515 507.593" fill="#3E2928"/>
<defs>
<linearGradient id="paint0_linear_0_1" x1="733.031" y1="557.98" x2="718.292" y2="580.983" gradientUnits="userSpaceOnUse">
<stop stop-color="#7F3500"/>
<stop offset="1" stop-color="#231F20" stop-opacity="0"/>
</linearGradient>
<linearGradient id="paint1_linear_0_1" x1="658.928" y1="652.838" x2="626.527" y2="692.796" gradientUnits="userSpaceOnUse">
<stop offset="0.03" stop-color="#7F3500"/>
<stop offset="1" stop-color="#231F20" stop-opacity="0"/>
</linearGradient>
<linearGradient id="paint2_linear_0_1" x1="578.828" y1="498.874" x2="554.118" y2="528.651" gradientUnits="userSpaceOnUse">
<stop stop-color="#843C09" stop-opacity="0.85"/>
<stop offset="1" stop-color="#231F20" stop-opacity="0"/>
</linearGradient>
<linearGradient id="paint3_linear_0_1" x1="843.496" y1="501.455" x2="828.704" y2="487.505" gradientUnits="userSpaceOnUse">
<stop stop-color="white" stop-opacity="0"/>
<stop offset="0.99" stop-color="#DC841E"/>
</linearGradient>
<linearGradient id="paint4_linear_0_1" x1="516.455" y1="575.209" x2="483.649" y2="615.834" gradientUnits="userSpaceOnUse">
<stop offset="0.03" stop-color="#7F3500"/>
<stop offset="1" stop-color="#231F20" stop-opacity="0"/>
</linearGradient>
</defs>
</svg>
