<svg width="132" height="110" viewBox="0 0 132 110" fill="none" xmlns="http://www.w3.org/2000/svg">
<g id="yellow">
<path id="Path" d="M127.652 67.0257L8.17078 1.23194C7.53117 0.89751 6.80129 0.71835 6.05697 0.713081C5.31265 0.707813 4.58108 0.87663 3.9383 1.20198C3.29552 1.52734 2.76499 1.99735 2.40186 2.56317C2.03874 3.12899 1.85628 3.76996 1.87343 4.41945L1.34917 40.9186C1.32756 41.5792 1.50403 42.2339 1.86115 42.8179C2.21826 43.4019 2.74363 43.895 3.3852 44.2483L122.886 108.673C123.512 108.997 124.224 109.173 124.95 109.183C125.676 109.194 126.393 109.038 127.027 108.732C127.656 108.416 128.18 107.964 128.549 107.418C128.917 106.873 129.117 106.253 129.13 105.619L130.236 71.5981C130.302 70.7067 130.097 69.815 129.644 69.0125C129.19 68.21 128.504 67.5248 127.652 67.0257Z" fill="#E2AC00"/>
<path id="Path_2" d="M98.5747 85.3778C102.82 90.7149 110.387 92.283 115.452 88.9431C120.516 85.6031 121.236 78.5187 116.989 73.2489C112.743 67.979 105.177 66.3436 100.086 69.7056C94.9955 73.0677 94.329 80.0631 98.5747 85.3778Z" fill="white"/>
<path id="Path_3" d="M87.1317 59.9326L38.3747 33.4127C37.9569 33.2526 37.4873 33.2303 37.0533 33.35C36.6193 33.4697 36.2506 33.7232 36.0159 34.0632C35.7812 34.4033 35.6966 34.8067 35.7777 35.1982C35.8588 35.5898 36.1001 35.9429 36.4567 36.1916L85.1883 62.6887C85.6024 62.844 86.066 62.8645 86.4947 62.7466C86.9234 62.6287 87.2888 62.3802 87.5242 62.0463C87.7596 61.7124 87.8495 61.3153 87.7775 60.9274C87.7055 60.5394 87.4763 60.1864 87.1317 59.9326Z" fill="#F2F2F2"/>
</g>
</svg>
